<?xml version="1.0" encoding="UTF-8"?>
<mxfile host="app.diagrams.net" modified="2023-12-21T08:32:33.280Z" agent="Mozilla/5.0 (Windows NT 10.0; Win64; x64) AppleWebKit/537.36 (KHTML, like Gecko) Chrome/120.0.0.0 Safari/537.36 Edg/120.0.0.0" etag="KrI1kZ8FVm48DgPh6K-q" version="22.1.11" type="google">
  <diagram name="第 1 页" id="sLF2xp2UE7lsVXM-KdKv">
    <mxGraphModel dx="1042" dy="569" grid="1" gridSize="10" guides="1" tooltips="1" connect="1" arrows="1" fold="1" page="1" pageScale="1" pageWidth="827" pageHeight="1169" math="0" shadow="0">
      <root>
        <mxCell id="0" />
        <mxCell id="1" parent="0" />
        <mxCell id="UjT_060HynP0TASqDiyJ-1" value="車主" style="shape=umlActor;verticalLabelPosition=bottom;verticalAlign=top;html=1;outlineConnect=0;" parent="1" vertex="1">
          <mxGeometry x="240" y="220" width="30" height="60" as="geometry" />
        </mxCell>
        <mxCell id="UjT_060HynP0TASqDiyJ-2" value="管理員" style="shape=umlActor;verticalLabelPosition=bottom;verticalAlign=top;html=1;outlineConnect=0;" parent="1" vertex="1">
          <mxGeometry x="480" y="220" width="30" height="60" as="geometry" />
        </mxCell>
        <mxCell id="UjT_060HynP0TASqDiyJ-3" value="入場停車" style="ellipse;whiteSpace=wrap;html=1;align=center;dashed=1;" parent="1" vertex="1">
          <mxGeometry x="320" y="230" width="100" height="40" as="geometry" />
        </mxCell>
        <mxCell id="UjT_060HynP0TASqDiyJ-4" value="" style="endArrow=classic;html=1;rounded=0;" parent="1" source="UjT_060HynP0TASqDiyJ-1" target="UjT_060HynP0TASqDiyJ-3" edge="1">
          <mxGeometry width="50" height="50" relative="1" as="geometry">
            <mxPoint x="390" y="260" as="sourcePoint" />
            <mxPoint x="440" y="210" as="targetPoint" />
          </mxGeometry>
        </mxCell>
        <mxCell id="UjT_060HynP0TASqDiyJ-5" value="" style="endArrow=classic;html=1;rounded=0;" parent="1" source="UjT_060HynP0TASqDiyJ-3" edge="1">
          <mxGeometry width="50" height="50" relative="1" as="geometry">
            <mxPoint x="420" y="300" as="sourcePoint" />
            <mxPoint x="420" y="250" as="targetPoint" />
          </mxGeometry>
        </mxCell>
        <mxCell id="UjT_060HynP0TASqDiyJ-11" value="" style="endArrow=classic;html=1;rounded=0;entryX=1;entryY=0.5;entryDx=0;entryDy=0;" parent="1" source="UjT_060HynP0TASqDiyJ-2" target="UjT_060HynP0TASqDiyJ-3" edge="1">
          <mxGeometry width="50" height="50" relative="1" as="geometry">
            <mxPoint x="390" y="260" as="sourcePoint" />
            <mxPoint x="440" y="210" as="targetPoint" />
          </mxGeometry>
        </mxCell>
      </root>
    </mxGraphModel>
  </diagram>
</mxfile>
